<svg id="Layer_1" data-name="Layer 1" xmlns="http://www.w3.org/2000/svg" viewBox="0 0 339.84 79.68"><defs><style>.cls-1{fill:#37474f;}.cls-2{fill:#78909c;}</style></defs><path class="cls-1" d="M41.74,152.22a15.28,15.28,0,0,1-4.73-.74,11.7,11.7,0,0,1-4-2.16l1.45-2.25a14.33,14.33,0,0,0,3.51,2,10.41,10.41,0,0,0,3.7.66,6,6,0,0,0,3.45-.86,2.72,2.72,0,0,0,1.28-2.42,2.2,2.2,0,0,0-.34-1.24,2.86,2.86,0,0,0-1-.89,7.87,7.87,0,0,0-1.76-.69c-.71-.2-1.54-.42-2.48-.65-1.19-.31-2.22-.6-3.09-.88a8.47,8.47,0,0,1-2.13-1,3.44,3.44,0,0,1-1.22-1.37,4.55,4.55,0,0,1-.39-2,5.71,5.71,0,0,1,.6-2.65,5.56,5.56,0,0,1,1.62-2A7.28,7.28,0,0,1,38.59,132a10.7,10.7,0,0,1,3-.4,11.77,11.77,0,0,1,4.2.73,10.37,10.37,0,0,1,3.28,1.9l-1.52,2a8.51,8.51,0,0,0-2.83-1.66,9.5,9.5,0,0,0-3.2-.56,5.77,5.77,0,0,0-3.11.79,2.7,2.7,0,0,0-1.28,2.49,2.36,2.36,0,0,0,.25,1.15,2.17,2.17,0,0,0,.82.8,6.45,6.45,0,0,0,1.47.61c.6.18,1.31.37,2.15.57,1.33.31,2.48.62,3.46.94a10.1,10.1,0,0,1,2.44,1.12,4,4,0,0,1,1.93,3.67,5.3,5.3,0,0,1-2.14,4.42A9.21,9.21,0,0,1,41.74,152.22Z" transform="translate(-33 -72.54)"/><path class="cls-1" d="M59.75,152.22a5.56,5.56,0,0,1-4.73-2.1c-1.07-1.39-1.61-3.48-1.61-6.25v-12h3.36v11.3q0,6.1,4.24,6.1A6.52,6.52,0,0,0,64.88,148a7.79,7.79,0,0,0,2.69-3.61V131.92h3.36v15.8c0,.79.35,1.2,1.06,1.22v2.9l-.89.1-.63,0a2.43,2.43,0,0,1-1.66-.59,2,2,0,0,1-.71-1.47L68,147.57A9.22,9.22,0,0,1,64.52,151,9.71,9.71,0,0,1,59.75,152.22Z" transform="translate(-33 -72.54)"/><path class="cls-1" d="M86.76,152.22a8.08,8.08,0,0,1-4.23-1.14,8.62,8.62,0,0,1-3-3v3.74h-3V74h3.35v61.89A10.49,10.49,0,0,1,83,132.76a7.79,7.79,0,0,1,4.28-1.18,7.69,7.69,0,0,1,3.7.88,8.93,8.93,0,0,1,2.8,2.31,10.32,10.32,0,0,1,1.8,3.32,12.16,12.16,0,0,1,.63,3.87,11,11,0,0,1-.73,4,10.43,10.43,0,0,1-2,3.26,9.28,9.28,0,0,1-3,2.21A8.57,8.57,0,0,1,86.76,152.22Zm-.84-2.9a6.19,6.19,0,0,0,2.75-.61,6.73,6.73,0,0,0,2.17-1.64,7.64,7.64,0,0,0,1.42-2.34,7.81,7.81,0,0,0,.49-2.77,8.28,8.28,0,0,0-.48-2.8,7.52,7.52,0,0,0-1.33-2.39,6.65,6.65,0,0,0-2.06-1.66,5.63,5.63,0,0,0-2.65-.63,5.51,5.51,0,0,0-2,.38,7.78,7.78,0,0,0-1.77,1A7.48,7.48,0,0,0,81,137.34a10.92,10.92,0,0,0-1.09,1.8v5.76a4.14,4.14,0,0,0,.82,1.75,6.84,6.84,0,0,0,1.49,1.4A7.89,7.89,0,0,0,84,149,5.64,5.64,0,0,0,85.92,149.32Z" transform="translate(-33 -72.54)"/><path class="cls-2" d="M84.65,59.46h25a0,0,0,0,1,0,0v20a0,0,0,0,1,0,0h-25A6.65,6.65,0,0,1,78,72.81v-6.7A6.65,6.65,0,0,1,84.65,59.46Z"/><path class="cls-2" d="M370,138.37,342.61,132v20L370,145.63A3.73,3.73,0,0,0,370,138.37Z" transform="translate(-33 -72.54)"/><rect class="cls-1" x="125.83" y="59.46" width="179.64" height="20"/><rect class="cls-1" x="113.78" y="59.46" width="7.91" height="20"/><path class="cls-2" d="M124.93,79.29A15.51,15.51,0,0,0,119,75a21,21,0,0,0-7.39-1.16,27.26,27.26,0,0,0-7.12.81A13.31,13.31,0,0,0,99.58,77a9.17,9.17,0,0,0-2.79,3.64,12.25,12.25,0,0,0-.89,4.77,9.48,9.48,0,0,0,.89,4.33,7.67,7.67,0,0,0,2.72,2.93,18.17,18.17,0,0,0,4.74,2q2.9.86,6.92,1.67t7.29,1.78a22,22,0,0,1,5.55,2.38,10.15,10.15,0,0,1,3.51,3.54,10.47,10.47,0,0,1,1.23,5.32,10.34,10.34,0,0,1-4.53,9.06q-4.53,3.14-12.51,3.14a27.8,27.8,0,0,1-10.39-1.81,25,25,0,0,1-8.42-5.69l1-.88a22.79,22.79,0,0,0,8,5.52,26.87,26.87,0,0,0,9.85,1.7q7.23,0,11.42-2.69a9,9,0,0,0,4.19-8.15,10,10,0,0,0-1-4.6,8.78,8.78,0,0,0-2.93-3.23,18.79,18.79,0,0,0-5-2.32,67.71,67.71,0,0,0-7.22-1.77q-4-.75-7.13-1.6a20.35,20.35,0,0,1-5.24-2.18,9,9,0,0,1-3.24-3.34,10.37,10.37,0,0,1-1.09-5A12.52,12.52,0,0,1,95.73,80a11.35,11.35,0,0,1,3.41-4.08,15.54,15.54,0,0,1,5.32-2.53,26.64,26.64,0,0,1,7-.85,22.32,22.32,0,0,1,8.08,1.33,16.88,16.88,0,0,1,6.3,4.46Z" transform="translate(-33 -72.54)"/><path class="cls-2" d="M134.54,96.73a25.39,25.39,0,0,1,1.54-8.65,25,25,0,0,1,4.42-7.74,22.53,22.53,0,0,1,7.16-5.58,21.31,21.31,0,0,1,9.71-2.15,19.51,19.51,0,0,1,11,3,18.34,18.34,0,0,1,6.68,7.6l-1.29.41a18.87,18.87,0,0,0-3.31-4.5,16.57,16.57,0,0,0-4.09-3,18.88,18.88,0,0,0-4.56-1.64A22,22,0,0,0,157.1,74a19.61,19.61,0,0,0-9,2,20.88,20.88,0,0,0-6.67,5.28,23,23,0,0,0-4.13,7.4,25.7,25.7,0,0,0-1.39,8.28,24,24,0,0,0,1.66,8.86,24.83,24.83,0,0,0,4.57,7.46,22.17,22.17,0,0,0,6.78,5.15,18.79,18.79,0,0,0,8.38,1.9,20.68,20.68,0,0,0,4.91-.61,21.29,21.29,0,0,0,4.87-1.84,18.72,18.72,0,0,0,7.81-7.77l1.29.34a16.18,16.18,0,0,1-3.34,4.84,20.71,20.71,0,0,1-4.7,3.54,22.39,22.39,0,0,1-5.49,2.15,23.23,23.23,0,0,1-5.62.72A19.24,19.24,0,0,1,148,119.5a23.55,23.55,0,0,1-7.12-5.69,26.65,26.65,0,0,1-4.64-8A25.83,25.83,0,0,1,134.54,96.73Z" transform="translate(-33 -72.54)"/><path class="cls-2" d="M185.52,121.27V72.88h19.69a12,12,0,0,1,5.45,1.26A14,14,0,0,1,215,77.48a16.14,16.14,0,0,1,2.83,4.7,14.68,14.68,0,0,1,1,5.35,16.82,16.82,0,0,1-.88,5.39,14.79,14.79,0,0,1-2.53,4.6,13.26,13.26,0,0,1-3.91,3.27,12.09,12.09,0,0,1-5,1.46l12.26,19h-1.63l-12.27-19h-18v19Zm1.36-20.38h18.81a10.23,10.23,0,0,0,4.91-1.16,12,12,0,0,0,3.71-3,13.61,13.61,0,0,0,2.35-4.26,14.88,14.88,0,0,0,.82-4.91,13.2,13.2,0,0,0-1-5,13.92,13.92,0,0,0-2.62-4.23,13.3,13.3,0,0,0-3.92-3,10.52,10.52,0,0,0-4.77-1.12H186.88Z" transform="translate(-33 -72.54)"/><path class="cls-2" d="M229.27,121.27V72.88h1.36v48.39Z" transform="translate(-33 -72.54)"/><path class="cls-2" d="M278.61,108.73a12,12,0,0,1-1,4.77,13.51,13.51,0,0,1-2.59,4,12.56,12.56,0,0,1-3.85,2.76,11,11,0,0,1-4.67,1H244.12V72.88h21.4A9.67,9.67,0,0,1,270.09,74a11.39,11.39,0,0,1,3.47,2.83,13.09,13.09,0,0,1,2.22,4,13.4,13.4,0,0,1,.78,4.47A12.66,12.66,0,0,1,274.69,92a11.13,11.13,0,0,1-5.08,4.5,12,12,0,0,1,3.71,1.84,13.2,13.2,0,0,1,2.87,2.86,12.55,12.55,0,0,1,1.8,3.58A13.19,13.19,0,0,1,278.61,108.73ZM245.49,74.25V96.19h19.62a8.72,8.72,0,0,0,4.09-1,10.22,10.22,0,0,0,3.17-2.52,11.94,11.94,0,0,0,2.08-3.51,10.94,10.94,0,0,0,.75-4,12.05,12.05,0,0,0-.72-4.16,11.59,11.59,0,0,0-2-3.51,9.19,9.19,0,0,0-3.07-2.42,8.77,8.77,0,0,0-3.92-.88Zm31.75,34.48a11.49,11.49,0,0,0-.78-4.19,12,12,0,0,0-2.15-3.58,10.48,10.48,0,0,0-3.23-2.49,9.16,9.16,0,0,0-4.06-.92H245.49V119.9h21.05a9.3,9.3,0,0,0,4.19-1,11.8,11.8,0,0,0,3.41-2.52,11.5,11.5,0,0,0,2.28-3.58A10.74,10.74,0,0,0,277.24,108.73Z" transform="translate(-33 -72.54)"/><path class="cls-2" d="M320.52,119.9v1.37H288.76V72.88H319.9v1.37H290.12v21.6h26.1v1.36h-26.1V119.9Z" transform="translate(-33 -72.54)"/><path class="cls-2" d="M330.81,121.27V72.88h15.53a24.29,24.29,0,0,1,10,1.91A20.08,20.08,0,0,1,363.42,80a21.62,21.62,0,0,1,4.22,7.67A30.78,30.78,0,0,1,369,97a29.55,29.55,0,0,1-1.6,10,22.07,22.07,0,0,1-4.53,7.63,19.89,19.89,0,0,1-7.16,4.91,24.49,24.49,0,0,1-9.41,1.74ZM367.68,97a28.52,28.52,0,0,0-1.4-9.13,20.26,20.26,0,0,0-4.12-7.19A18.71,18.71,0,0,0,355.44,76a22.86,22.86,0,0,0-9.1-1.7H332.17V119.9h14.17a22.94,22.94,0,0,0,9.24-1.73,18.67,18.67,0,0,0,6.68-4.81,20.43,20.43,0,0,0,4.05-7.26A29.16,29.16,0,0,0,367.68,97Z" transform="translate(-33 -72.54)"/></svg>