<svg id="Layer_1" data-name="Layer 1" xmlns="http://www.w3.org/2000/svg" viewBox="0 0 476 129"><defs><style>.cls-1{fill:#37474f;}.cls-2{fill:#78909c;}</style></defs><path class="cls-1" d="M28.43,115.85a19.88,19.88,0,0,1-6.1-1,15.05,15.05,0,0,1-5.16-2.78l1.86-2.9a18,18,0,0,0,4.53,2.58,13.18,13.18,0,0,0,4.77.86,7.94,7.94,0,0,0,4.45-1.1,3.55,3.55,0,0,0,1.65-3.13,2.75,2.75,0,0,0-.45-1.59,3.61,3.61,0,0,0-1.32-1.16,11.19,11.19,0,0,0-2.27-.89c-.91-.26-2-.54-3.19-.83-1.54-.39-2.87-.77-4-1.13a10.85,10.85,0,0,1-2.75-1.28,4.4,4.4,0,0,1-1.57-1.77,5.9,5.9,0,0,1-.5-2.56,7.42,7.42,0,0,1,.77-3.42,7.14,7.14,0,0,1,2.09-2.51,9.26,9.26,0,0,1,3.12-1.52,14.07,14.07,0,0,1,3.86-.52,15.45,15.45,0,0,1,5.41.94,13.24,13.24,0,0,1,4.23,2.46l-2,2.6a11.07,11.07,0,0,0-3.64-2.14,12.41,12.41,0,0,0-4.13-.71,7.58,7.58,0,0,0-4,1,3.49,3.49,0,0,0-1.64,3.22,3,3,0,0,0,.32,1.48,2.81,2.81,0,0,0,1.05,1,8.63,8.63,0,0,0,1.9.79c.77.23,1.69.47,2.77.73,1.71.4,3.19.8,4.46,1.21a12.6,12.6,0,0,1,3.14,1.45,5.55,5.55,0,0,1,1.87,2,5.67,5.67,0,0,1,.62,2.75,6.8,6.8,0,0,1-2.76,5.7A11.87,11.87,0,0,1,28.43,115.85Z"/><path class="cls-1" d="M51.64,115.85a7.19,7.19,0,0,1-6.1-2.71q-2.07-2.7-2.07-8.06V89.69H47.8v14.55q0,7.88,5.46,7.87a8.29,8.29,0,0,0,5-1.7,10,10,0,0,0,3.47-4.64V89.69h4.33v20.36c0,1,.46,1.54,1.37,1.57v3.74l-1.15.12c-.28,0-.55,0-.81,0a3.08,3.08,0,0,1-2.14-.76,2.56,2.56,0,0,1-.91-1.89l-.1-3a11.94,11.94,0,0,1-4.53,4.45A12.47,12.47,0,0,1,51.64,115.85Z"/><path class="cls-1" d="M86.46,115.85A10.33,10.33,0,0,1,81,114.37a11.15,11.15,0,0,1-3.89-3.83v4.82H73.28V15H77.6V94.8a13.34,13.34,0,0,1,4-4,10.6,10.6,0,0,1,10.27-.39,11.7,11.7,0,0,1,3.62,3,13.47,13.47,0,0,1,2.31,4.28,15.71,15.71,0,0,1,.81,5,14.14,14.14,0,0,1-.93,5.12,13.72,13.72,0,0,1-2.56,4.2,12,12,0,0,1-3.86,2.85A11,11,0,0,1,86.46,115.85Zm-1.09-3.74a7.92,7.92,0,0,0,3.54-.79,8.74,8.74,0,0,0,2.81-2.11,9.86,9.86,0,0,0,1.82-3,10.21,10.21,0,0,0,.64-3.57A10.74,10.74,0,0,0,93.56,99a9.85,9.85,0,0,0-1.72-3.08,8.66,8.66,0,0,0-2.66-2.14A7.24,7.24,0,0,0,85.77,93a7.12,7.12,0,0,0-2.61.49,9.84,9.84,0,0,0-2.29,1.31A10.15,10.15,0,0,0,79,96.67,14.21,14.21,0,0,0,77.6,99v7.43a5.4,5.4,0,0,0,1.06,2.26,8.39,8.39,0,0,0,1.92,1.79,10.13,10.13,0,0,0,2.36,1.21A7.4,7.4,0,0,0,85.37,112.11Z"/><path class="cls-2" d="M124.35,89.78h34.12a0,0,0,0,1,0,0v25.78a0,0,0,0,1,0,0H124.35a6.65,6.65,0,0,1-6.65-6.65V96.43A6.65,6.65,0,0,1,124.35,89.78Z"/><path class="cls-2" d="M456,99l-39.74-9.26v25.78L456,106.3A3.73,3.73,0,0,0,456,99Z"/><rect class="cls-1" x="179.34" y="89.78" width="231.53" height="25.78"/><rect class="cls-1" x="163.81" y="89.78" width="10.19" height="25.78"/><path class="cls-2" d="M135.65,21.85A20.18,20.18,0,0,0,128,16.31a27.4,27.4,0,0,0-9.53-1.49,35,35,0,0,0-9.18,1,17.43,17.43,0,0,0-6.28,3,11.91,11.91,0,0,0-3.6,4.7,15.82,15.82,0,0,0-1.14,6.15,12.21,12.21,0,0,0,1.14,5.58,9.87,9.87,0,0,0,3.51,3.78A23.52,23.52,0,0,0,109,41.74q3.73,1.09,8.91,2.15t9.4,2.29a28.45,28.45,0,0,1,7.16,3.07A13.16,13.16,0,0,1,139,53.82a13.41,13.41,0,0,1,1.58,6.85q0,7.64-5.84,11.68t-16.12,4a35.79,35.79,0,0,1-13.39-2.33,32.21,32.21,0,0,1-10.85-7.33l1.32-1.14A29.13,29.13,0,0,0,106,72.7a34.32,34.32,0,0,0,12.69,2.2q9.31,0,14.71-3.47t5.41-10.5A13,13,0,0,0,137.59,55a11.31,11.31,0,0,0-3.78-4.17,24.31,24.31,0,0,0-6.5-3A92.3,92.3,0,0,0,118,45.56c-3.46-.64-6.51-1.33-9.18-2.06a25.8,25.8,0,0,1-6.76-2.81,11.45,11.45,0,0,1-4.17-4.31,13.35,13.35,0,0,1-1.41-6.45A15.91,15.91,0,0,1,98,22.77a14.56,14.56,0,0,1,4.39-5.27,20,20,0,0,1,6.85-3.25,34.08,34.08,0,0,1,9-1.1,28.9,28.9,0,0,1,10.41,1.71,21.56,21.56,0,0,1,8.13,5.76Z"/><path class="cls-2" d="M148,44.33a33.14,33.14,0,0,1,2-11.15,32.19,32.19,0,0,1,5.71-10A28.79,28.79,0,0,1,165,16a27.32,27.32,0,0,1,12.51-2.77,25.1,25.1,0,0,1,14.14,3.82,23.62,23.62,0,0,1,8.61,9.79l-1.67.53a24.06,24.06,0,0,0-4.26-5.8A21.38,21.38,0,0,0,189,17.76a24.64,24.64,0,0,0-5.88-2.11,28.88,28.88,0,0,0-6-.65,25.16,25.16,0,0,0-11.59,2.59,26.81,26.81,0,0,0-8.61,6.8,29.64,29.64,0,0,0-5.32,9.53,33.12,33.12,0,0,0-1.8,10.68A30.65,30.65,0,0,0,152,56a31.69,31.69,0,0,0,5.88,9.62,28.48,28.48,0,0,0,8.74,6.63,24.17,24.17,0,0,0,10.8,2.46,26.63,26.63,0,0,0,6.33-.79A28.12,28.12,0,0,0,190,71.56a24.33,24.33,0,0,0,5.62-4.08A24,24,0,0,0,200,61.55l1.67.44a20.79,20.79,0,0,1-4.3,6.23,27.11,27.11,0,0,1-6.06,4.57,29.12,29.12,0,0,1-7.07,2.77,30.46,30.46,0,0,1-7.25.92,24.81,24.81,0,0,1-11.68-2.81,30.44,30.44,0,0,1-9.18-7.34,34.54,34.54,0,0,1-6-10.27A33.15,33.15,0,0,1,148,44.33Z"/><path class="cls-2" d="M213.74,76V13.59h25.38a15.43,15.43,0,0,1,7,1.63,17.83,17.83,0,0,1,5.57,4.3,20.71,20.71,0,0,1,3.65,6.06,18.78,18.78,0,0,1,1.32,6.89,21.27,21.27,0,0,1-1.15,6.94,18.85,18.85,0,0,1-3.25,5.93,17,17,0,0,1-5,4.22,15.69,15.69,0,0,1-6.45,1.89L256.6,76h-2.11l-15.81-24.5H215.49V76Zm1.75-26.26h24.25a13.34,13.34,0,0,0,6.32-1.49,15.53,15.53,0,0,0,4.78-3.91,17.72,17.72,0,0,0,3-5.49,19.46,19.46,0,0,0,1.05-6.33,17.12,17.12,0,0,0-1.23-6.41,18,18,0,0,0-3.38-5.44,17.06,17.06,0,0,0-5-3.82,13.51,13.51,0,0,0-6.15-1.45H215.49Z"/><path class="cls-2" d="M270.13,76V13.59h1.75V76Z"/><path class="cls-2" d="M333.71,59.79a15.56,15.56,0,0,1-1.23,6.15,17.49,17.49,0,0,1-3.33,5.14,15.79,15.79,0,0,1-5,3.55,14.15,14.15,0,0,1-6,1.32h-28.9V13.59h27.58A12.25,12.25,0,0,1,322.73,15a14.59,14.59,0,0,1,4.48,3.64,16.76,16.76,0,0,1,2.86,5.1,17.2,17.2,0,0,1,1,5.75,16.34,16.34,0,0,1-2.42,8.69,14.4,14.4,0,0,1-6.54,5.8,15.77,15.77,0,0,1,4.79,2.37A17.45,17.45,0,0,1,330.6,50a15.86,15.86,0,0,1,2.32,4.61A16.87,16.87,0,0,1,333.71,59.79ZM291,15.35V43.63h25.29a11.28,11.28,0,0,0,5.27-1.23,13.34,13.34,0,0,0,4.09-3.25,15.85,15.85,0,0,0,2.68-4.52,14.28,14.28,0,0,0,1-5.14,15.72,15.72,0,0,0-.92-5.36,14.84,14.84,0,0,0-2.55-4.52,11.69,11.69,0,0,0-4-3.12,11.34,11.34,0,0,0-5-1.14ZM332,59.79a14.83,14.83,0,0,0-1-5.4,15.64,15.64,0,0,0-2.77-4.61A13.1,13.1,0,0,0,324,46.57a11.73,11.73,0,0,0-5.23-1.18H291v28.8h27.14a12,12,0,0,0,5.4-1.23,14.93,14.93,0,0,0,7.33-7.86A13.79,13.79,0,0,0,332,59.79Z"/><path class="cls-2" d="M387.73,74.19V76H346.8V13.59h40.14v1.76H348.56V43.19H382.2V45H348.56V74.19Z"/><path class="cls-2" d="M401,76V13.59h20a31.24,31.24,0,0,1,12.87,2.46A25.72,25.72,0,0,1,443,22.73a27.74,27.74,0,0,1,5.45,9.88,39.6,39.6,0,0,1,1.8,12.07,37.77,37.77,0,0,1-2.07,12.87,28.24,28.24,0,0,1-5.84,9.84,25.67,25.67,0,0,1-9.22,6.32A31.45,31.45,0,0,1,421,76Zm47.52-31.27a36.83,36.83,0,0,0-1.8-11.77,26.08,26.08,0,0,0-5.31-9.26,24.38,24.38,0,0,0-8.66-6.11A29.62,29.62,0,0,0,421,15.35H402.75V74.19H421A29.62,29.62,0,0,0,432.92,72a24.13,24.13,0,0,0,8.61-6.2,26.3,26.3,0,0,0,5.22-9.35A37.75,37.75,0,0,0,448.51,44.68Z"/></svg>